PathFileType	4	(X/Y/Z)	Patient4_TMGait_0pt3_03_right_08.trc.trc
DataRate	CameraRate	NumFrames	NumMarkers	Units	OrigDataRate	OrigDataStartFrame	OrigNumFrames
53.435114503817	53.435114503817	4	33	mm	53.435114503817	53	       141
Frame#	Time	Sacral			L.Shoulder			Chest			R.Shoulder			Neck			R.ASIS			L.ASIS			R.Thigh.Superior			R.Thigh.Lateral			R.Thigh.Inferior			R.Patella			L.Thigh.Superior			L.Thigh.Lateral			L.Thigh.Inferior			L.Patella			L.Shank.Superior			L.Shank.Lateral			L.Shank.Inferior			R.Shank.Superior			R.Shank.Lateral			R.Shank.Inferior			R.Heel			R.Midfoot.Superior			R.Midfoot.Lateral			R.Toe			L.Heel			L.Midfoot.Lateral			L.Midfoot.Superior			L.Toe			L.Elbow			L.Wrist			R.Elbow			R.Wrist			
		X1	Y1	Z1	X2	Y2	Z2	X3	Y3	Z3	X4	Y4	Z4	X5	Y5	Z5	X6	Y6	Z6	X7	Y7	Z7	X8	Y8	Z8	X9	Y9	Z9	X10	Y10	Z10	X11	Y11	Z11	X12	Y12	Z12	X13	Y13	Z13	X14	Y14	Z14	X15	Y15	Z15	X16	Y16	Z16	X17	Y17	Z17	X18	Y18	Z18	X19	Y19	Z19	X20	Y20	Z20	X21	Y21	Z21	X22	Y22	Z22	X23	Y23	Z23	X24	Y24	Z24	X25	Y25	Z25	X26	Y26	Z26	X27	Y27	Z27	X28	Y28	Z28	X29	Y29	Z29	X30	Y30	Z30	X31	Y31	Z31	X32	Y32	Z32	X33	Y33	Z33	

53	16.153142857143	769.316299412710	990.644295821491	568.050305756593	949.255125491858	1421.275987183080	384.828824103155	1053.133052053542	1352.107691673586	544.015247170883	974.252571183083	1425.186633079402	719.913934308123	934.248170642287	1482.908233842959	543.235533570813	1006.459676403595	927.318924178673	674.425263224107	979.228090099922	954.419521970435	402.983607526257	1056.485373488081	731.945580528113	630.759082503989	982.252817919884	613.661996989744	682.034751088939	1060.812942397173	570.217649959280	597.370177775469	1064.141504029154	474.255456483348	598.342450961392	1064.143110019489	769.442347599064	430.250699819680	1021.031468707312	642.277878868071	351.198610864756	1121.204318999863	578.806783250638	416.972112327278	1132.942583614796	489.706290505882	404.348013846476	1067.805916032213	424.614815176982	389.991991163754	926.908393734828	379.029398659455	342.708649213685	925.175782355782	244.462491750182	384.287432610147	1018.293308275868	387.758087477643	600.804829297450	931.904065017517	293.477968741780	658.559439043765	955.224281167080	197.075585135937	590.547780234800	797.217627187817	45.316522453082	554.525376336499	967.277980755529	94.557794291161	594.419683299694	878.002805987634	37.916074323743	632.115275727049	1086.538980869257	40.559757383286	629.701845539699	742.112647159863	160.344787182135	423.945661744679	798.290108637473	130.436248325164	335.770056850818	903.303219183252	146.482236562402	353.199529816933	988.947651235578	46.776636623193	306.741663617264	910.138930432086	1067.221576593721	274.839412081484	960.874829467288	811.251437766052	268.230675280239	987.746499769426	1080.876158066295	856.529331082700	1161.644364321666	888.959467349003	885.537877215725	
54	16.171857142857	768.232891192078	989.963114753934	571.711524076493	944.391327588659	1420.683859098916	386.040414052248	1051.622287940371	1351.653396486594	543.086086882350	976.314518697545	1424.684427523406	720.628997139967	932.797439911409	1482.336419707731	544.477050792507	1006.680758111830	926.365091658739	674.328429020118	975.705361475131	954.352474688056	403.416198593987	1055.508541136976	730.754913512151	629.813427628881	981.838146588671	612.513610656177	681.871242523080	1059.183180591011	569.051900302554	596.128190941085	1062.154380171173	472.930367271435	596.889683059294	1062.903495893283	771.879609094648	431.255069227373	1022.287624564948	644.219975233516	352.090117119145	1123.016898805470	582.397567823347	418.254639177695	1137.145698678918	494.272121654817	405.269589593167	1075.160080474261	427.475880959997	390.359713609362	937.076956176669	374.752128822639	343.192271652486	942.933492907285	240.090996945266	384.030559135305	1015.492439098473	386.563909237367	599.838231357405	928.836300564295	292.880884188613	658.232235015275	950.793264689137	196.367054843474	590.036194112834	791.552818038097	45.293236559228	554.630967518296	961.533000358121	94.311711118087	594.035082631291	872.374754656223	37.879628015255	632.188653463168	1080.901477115215	40.493508061827	629.677974617630	765.348420405638	145.773709526103	424.037154869511	822.656343683426	119.685737925294	335.368684545557	926.515867092614	141.327693218173	352.481766799449	1017.227195458882	47.198516119925	304.961678044018	892.055574832686	1067.743534103525	278.277469746210	930.098004310550	809.686938607952	273.467891720069	1000.851938432619	1081.029258659604	857.145262931182	1186.912267072258	900.714084315393	882.127998070905	
55	16.190571428571	767.164983115349	989.821957623245	575.218138775797	939.642167005008	1420.559603469047	387.157888042453	1050.178067067685	1351.557338479946	541.956189447819	978.511093960555	1424.552224453523	721.074649603581	931.435822319566	1482.146302819927	545.559691686532	1006.810711242281	925.756948164964	674.006701657942	972.158904138850	954.594811194918	403.630149088053	1053.985435020828	729.721351873925	628.857810363771	980.621765661308	611.703091514676	681.811039260451	1056.634984978949	568.049726769833	595.024980861544	1059.124991975358	471.916843843424	595.672435429083	1060.972728129630	774.161512325626	431.879349093891	1022.287592503009	646.145253174234	352.602732777602	1123.436736728817	585.687671627663	418.969580585651	1139.836473439897	498.854277996468	405.750958295575	1081.430585614583	430.444501944349	390.389004573791	947.051876672029	369.870846113197	343.022522546145	961.154547862779	235.594128006829	383.404682747656	1011.850890020745	385.678615518196	599.080487172311	925.106445262250	292.403454253369	658.045069214077	945.999837193645	195.839218135965	589.670975913837	785.879626418188	45.257070069506	554.775477381008	955.836420185350	94.176168931598	593.841265273017	866.734256395335	37.837007435050	632.283686152383	1075.247760821371	40.440280139039	629.647222990140	790.001120375250	130.590543981804	423.422929614484	848.650063603957	108.342082298128	334.568642305835	950.950342205916	136.024027487919	351.592494251628	1046.995208955592	47.950781671757	303.683671450121	874.260577519931	1069.353097173532	281.574832265321	900.696292637586	810.010027105725	278.814029294031	1013.813171710861	1081.888368228489	857.169917637395	1211.545137237036	914.277262241880	877.566309812584	
56	16.209285714286	766.100370704603	990.239412138682	578.534981398709	935.090283404763	1420.921219894982	388.174667893316	1048.821249696038	1351.821617677565	540.651694991393	980.820792175492	1424.798198436554	721.251153330545	930.195125622762	1482.346995903686	546.488682678206	1006.830382140619	925.518416830709	673.486183903437	968.617555343089	955.160992598340	403.636970845985	1051.906675571411	728.866727672927	627.934708748241	978.575556959692	611.249545402715	681.872508012459	1053.159162688795	567.231639854523	594.100753447362	1055.043561692748	471.232016385110	594.731880481348	1058.403119980686	776.275038233175	432.146747265983	1021.067298855332	648.016210425823	352.742779902034	1122.528556914554	588.626367702729	419.114904159395	1141.046001224527	503.391757785445	405.821445081623	1086.575035097404	433.524023025545	390.133380199609	956.831989918971	364.675300655301	342.209895041501	979.562959300321	231.356244456628	382.483502939704	1007.362823937893	385.122686510600	598.560075962338	920.696201536268	292.061472884813	658.005288254613	940.837740886609	195.506279745891	589.458528159838	780.196423996627	45.206819606631	554.953815287022	950.197313186648	94.165695545829	593.856540225387	861.080013152959	37.791333800573	632.398602305595	1069.576721288278	40.405842503242	629.611254247725	815.705108147151	115.578336859656	422.134799481949	875.901432190906	97.095473274417	333.441285586693	976.206155929998	131.045324075054	350.636916389079	1077.647942200671	49.340916044764	303.092039320665	857.017220817351	1072.027807284861	284.732387075303	872.880796861961	812.008165919253	284.235749462933	1026.636537882471	1083.449888398372	856.620955449512	1235.313242808780	929.528323910327	871.956155177299	
